# xmcd CD database file
#
# Track frame offsets:
#	150
#	20893
#	46643
#	75270
#	101415
#	116025
#	141133
#	164715
#	201885
#
# Disc length: 3065 seconds
#
# Revision: 0
# Processed by: cddbd v1.5.2PL0 Copyright (c) Steve Scherf et al.
# Submitted via: CDex 1.60beta1-cs1
#
DISCID=720bf709
DTITLE=Dan Gibson - Favorite Sellections
DYEAR=1994
DGENRE=New Age
TTITLE0=The Pool At Baie Fine
TTITLE1=Stream of Dreams
TTITLE2=First Light
TTITLE3=Beneath the Towering Pines
TTITLE4=Tchaikovsky's Dance of the Sugar Plum Fairy
TTITLE5=Beethoven's Fur Elise
TTITLE6=Redwoods Forest
TTITLE7=Dunes on the Cape
TTITLE8=Pachelbel's Canon in D
EXTD=YEAR: 1994
EXTT0=
EXTT1=
EXTT2=
EXTT3=
EXTT4=
EXTT5=
EXTT6=
EXTT7=
EXTT8=
PLAYORDER=
